<svg width="501" height="381" viewBox="0 0 501 381" fill="none" xmlns="http://www.w3.org/2000/svg">
<rect width="501" height="381" fill="#B500B8"/>
<mask id="path-2-outside-1_702_157" maskUnits="userSpaceOnUse" x="19" y="2.16772" width="481" height="367" fill="black">
<rect fill="white" x="19" y="2.16772" width="481" height="367"/>
<path d="M105.966 181.168C91.9664 181.168 78.9664 177.501 66.9664 170.168C54.9664 162.834 45.4331 153.101 38.3664 140.968C31.4331 128.701 27.9664 115.568 27.9664 101.568C27.9664 87.7011 31.4997 74.7677 38.5664 62.7677C45.6331 50.6344 55.1664 41.0344 67.1664 33.9677C79.1664 26.7677 92.1664 23.1677 106.166 23.1677C120.3 23.1677 133.3 26.7011 145.166 33.7677C157.033 40.8344 166.433 50.4344 173.366 62.5677C180.433 74.5677 183.966 87.5677 183.966 101.568C183.966 115.968 180.433 129.301 173.366 141.568C166.433 153.701 156.966 163.368 144.966 170.568C133.1 177.634 120.1 181.168 105.966 181.168ZM105.966 175.368C118.766 175.368 130.633 172.101 141.566 165.568C152.5 158.901 161.166 149.968 167.566 138.768C174.1 127.434 177.366 115.168 177.366 101.968C177.366 88.9011 174.166 76.7677 167.766 65.5677C161.366 54.3677 152.7 45.5011 141.766 38.9677C130.833 32.301 118.966 28.9677 106.166 28.9677C93.2331 28.9677 81.2997 32.301 70.3664 38.9677C59.4331 45.5011 50.6997 54.3677 44.1664 65.5677C37.7664 76.7677 34.5664 88.9011 34.5664 101.968C34.5664 115.168 37.7664 127.434 44.1664 138.768C50.6997 149.968 59.4331 158.901 70.3664 165.568C81.2997 172.101 93.1664 175.368 105.966 175.368ZM216.924 42.1677V177.168H211.124V24.9677L321.524 161.968V27.1677H327.324V179.368L216.924 42.1677ZM430.576 28.9677C417.376 28.9677 405.309 32.3677 394.376 39.1677C383.576 45.8344 374.976 54.8344 368.576 66.1677C362.309 77.3677 359.176 89.4344 359.176 102.368C359.176 115.434 362.376 127.568 368.776 138.768C375.176 149.968 383.642 158.901 394.176 165.568C404.842 172.101 416.309 175.368 428.576 175.368C435.776 175.368 442.176 174.701 447.776 173.368C453.509 172.034 458.976 169.901 464.176 166.968V119.968H414.576V114.168H470.776V162.768L471.176 162.568V169.968C464.776 173.834 458.176 176.634 451.376 178.368C444.709 180.234 437.376 181.168 429.376 181.168C415.376 181.168 402.509 177.768 390.776 170.968C379.042 164.034 369.709 154.568 362.776 142.568C355.976 130.434 352.576 116.834 352.576 101.768C352.576 87.2344 356.109 73.9677 363.176 61.9677C370.376 49.9677 379.909 40.5011 391.776 33.5677C403.776 26.6344 416.509 23.1677 429.976 23.1677C439.309 23.1677 446.709 24.0344 452.176 25.7677C457.642 27.3677 463.976 30.2344 471.176 34.3677V41.7677C464.376 37.1011 458.042 33.8344 452.176 31.9677C446.442 29.9677 439.242 28.9677 430.576 28.9677ZM116.948 357.168L37.5484 273.768V357.168H30.9484V207.168H37.5484V261.568L100.148 207.168H109.548L39.3484 267.168L125.748 357.168H116.948ZM146.378 207.168H152.978V351.368H199.378V357.168H146.378V207.168ZM281.064 361.168C267.064 361.168 254.064 357.501 242.064 350.168C230.064 342.834 220.531 333.101 213.464 320.968C206.531 308.701 203.064 295.568 203.064 281.568C203.064 267.701 206.597 254.768 213.664 242.768C220.731 230.634 230.264 221.034 242.264 213.968C254.264 206.768 267.264 203.168 281.264 203.168C295.397 203.168 308.397 206.701 320.264 213.768C332.131 220.834 341.531 230.434 348.464 242.568C355.531 254.568 359.064 267.568 359.064 281.568C359.064 295.968 355.531 309.301 348.464 321.568C341.531 333.701 332.064 343.368 320.064 350.568C308.197 357.634 295.197 361.168 281.064 361.168ZM281.064 355.368C293.864 355.368 305.731 352.101 316.664 345.568C327.597 338.901 336.264 329.968 342.664 318.768C349.197 307.434 352.464 295.168 352.464 281.968C352.464 268.901 349.264 256.768 342.864 245.568C336.464 234.368 327.797 225.501 316.864 218.968C305.931 212.301 294.064 208.968 281.264 208.968C268.331 208.968 256.397 212.301 245.464 218.968C234.531 225.501 225.797 234.368 219.264 245.568C212.864 256.768 209.664 268.901 209.664 281.968C209.664 295.168 212.864 307.434 219.264 318.768C225.797 329.968 234.531 338.901 245.464 345.568C256.397 352.101 268.264 355.368 281.064 355.368ZM472.222 357.168L392.822 273.768V357.168H386.222V207.168H392.822V261.568L455.422 207.168H464.822L394.622 267.168L481.022 357.168H472.222Z"/>
</mask>
<path d="M105.966 181.168C91.9664 181.168 78.9664 177.501 66.9664 170.168C54.9664 162.834 45.4331 153.101 38.3664 140.968C31.4331 128.701 27.9664 115.568 27.9664 101.568C27.9664 87.7011 31.4997 74.7677 38.5664 62.7677C45.6331 50.6344 55.1664 41.0344 67.1664 33.9677C79.1664 26.7677 92.1664 23.1677 106.166 23.1677C120.3 23.1677 133.3 26.7011 145.166 33.7677C157.033 40.8344 166.433 50.4344 173.366 62.5677C180.433 74.5677 183.966 87.5677 183.966 101.568C183.966 115.968 180.433 129.301 173.366 141.568C166.433 153.701 156.966 163.368 144.966 170.568C133.1 177.634 120.1 181.168 105.966 181.168ZM105.966 175.368C118.766 175.368 130.633 172.101 141.566 165.568C152.5 158.901 161.166 149.968 167.566 138.768C174.1 127.434 177.366 115.168 177.366 101.968C177.366 88.9011 174.166 76.7677 167.766 65.5677C161.366 54.3677 152.7 45.5011 141.766 38.9677C130.833 32.301 118.966 28.9677 106.166 28.9677C93.2331 28.9677 81.2997 32.301 70.3664 38.9677C59.4331 45.5011 50.6997 54.3677 44.1664 65.5677C37.7664 76.7677 34.5664 88.9011 34.5664 101.968C34.5664 115.168 37.7664 127.434 44.1664 138.768C50.6997 149.968 59.4331 158.901 70.3664 165.568C81.2997 172.101 93.1664 175.368 105.966 175.368ZM216.924 42.1677V177.168H211.124V24.9677L321.524 161.968V27.1677H327.324V179.368L216.924 42.1677ZM430.576 28.9677C417.376 28.9677 405.309 32.3677 394.376 39.1677C383.576 45.8344 374.976 54.8344 368.576 66.1677C362.309 77.3677 359.176 89.4344 359.176 102.368C359.176 115.434 362.376 127.568 368.776 138.768C375.176 149.968 383.642 158.901 394.176 165.568C404.842 172.101 416.309 175.368 428.576 175.368C435.776 175.368 442.176 174.701 447.776 173.368C453.509 172.034 458.976 169.901 464.176 166.968V119.968H414.576V114.168H470.776V162.768L471.176 162.568V169.968C464.776 173.834 458.176 176.634 451.376 178.368C444.709 180.234 437.376 181.168 429.376 181.168C415.376 181.168 402.509 177.768 390.776 170.968C379.042 164.034 369.709 154.568 362.776 142.568C355.976 130.434 352.576 116.834 352.576 101.768C352.576 87.2344 356.109 73.9677 363.176 61.9677C370.376 49.9677 379.909 40.5011 391.776 33.5677C403.776 26.6344 416.509 23.1677 429.976 23.1677C439.309 23.1677 446.709 24.0344 452.176 25.7677C457.642 27.3677 463.976 30.2344 471.176 34.3677V41.7677C464.376 37.1011 458.042 33.8344 452.176 31.9677C446.442 29.9677 439.242 28.9677 430.576 28.9677ZM116.948 357.168L37.5484 273.768V357.168H30.9484V207.168H37.5484V261.568L100.148 207.168H109.548L39.3484 267.168L125.748 357.168H116.948ZM146.378 207.168H152.978V351.368H199.378V357.168H146.378V207.168ZM281.064 361.168C267.064 361.168 254.064 357.501 242.064 350.168C230.064 342.834 220.531 333.101 213.464 320.968C206.531 308.701 203.064 295.568 203.064 281.568C203.064 267.701 206.597 254.768 213.664 242.768C220.731 230.634 230.264 221.034 242.264 213.968C254.264 206.768 267.264 203.168 281.264 203.168C295.397 203.168 308.397 206.701 320.264 213.768C332.131 220.834 341.531 230.434 348.464 242.568C355.531 254.568 359.064 267.568 359.064 281.568C359.064 295.968 355.531 309.301 348.464 321.568C341.531 333.701 332.064 343.368 320.064 350.568C308.197 357.634 295.197 361.168 281.064 361.168ZM281.064 355.368C293.864 355.368 305.731 352.101 316.664 345.568C327.597 338.901 336.264 329.968 342.664 318.768C349.197 307.434 352.464 295.168 352.464 281.968C352.464 268.901 349.264 256.768 342.864 245.568C336.464 234.368 327.797 225.501 316.864 218.968C305.931 212.301 294.064 208.968 281.264 208.968C268.331 208.968 256.397 212.301 245.464 218.968C234.531 225.501 225.797 234.368 219.264 245.568C212.864 256.768 209.664 268.901 209.664 281.968C209.664 295.168 212.864 307.434 219.264 318.768C225.797 329.968 234.531 338.901 245.464 345.568C256.397 352.101 268.264 355.368 281.064 355.368ZM472.222 357.168L392.822 273.768V357.168H386.222V207.168H392.822V261.568L455.422 207.168H464.822L394.622 267.168L481.022 357.168H472.222Z" fill="white"/>
<path d="M66.9664 170.168L62.7948 176.994L66.9664 170.168ZM38.3664 140.968L31.4019 144.904L31.4274 144.949L31.4534 144.994L38.3664 140.968ZM38.5664 62.7677L45.4599 66.8272L45.4697 66.8106L45.4794 66.794L38.5664 62.7677ZM67.1664 33.9677L71.2259 40.8612L71.2542 40.8446L71.2824 40.8277L67.1664 33.9677ZM145.166 33.7677L141.073 40.6413L141.073 40.6413L145.166 33.7677ZM173.366 62.5677L166.42 66.5368L166.446 66.5822L166.473 66.6272L173.366 62.5677ZM173.366 141.568L166.434 137.574L166.427 137.586L166.42 137.599L173.366 141.568ZM144.966 170.568L149.06 177.441L149.071 177.434L149.082 177.428L144.966 170.568ZM141.566 165.568L145.67 172.435L145.701 172.417L145.731 172.398L141.566 165.568ZM167.566 138.768L160.636 134.772L160.628 134.785L160.62 134.799L167.566 138.768ZM167.766 65.5677L174.712 61.5986L174.712 61.5986L167.766 65.5677ZM141.766 38.9677L137.602 45.7981L137.632 45.8167L137.663 45.835L141.766 38.9677ZM70.3664 38.9677L74.4701 45.835L74.5007 45.8167L74.5313 45.7981L70.3664 38.9677ZM44.1664 65.5677L37.2562 61.5368L37.2382 61.5676L37.2205 61.5986L44.1664 65.5677ZM44.1664 138.768L37.2004 142.701L37.2279 142.75L37.2562 142.799L44.1664 138.768ZM70.3664 165.568L66.2015 172.398L66.2321 172.417L66.2628 172.435L70.3664 165.568ZM105.966 173.168C93.4455 173.168 81.888 169.911 71.138 163.341L62.7948 176.994C76.0449 185.091 90.4873 189.168 105.966 189.168V173.168ZM71.138 163.341C60.2679 156.699 51.6774 147.927 45.2794 136.941L31.4534 144.994C39.1887 158.275 49.6649 168.97 62.7948 176.994L71.138 163.341ZM45.3309 137.031C39.0718 125.957 35.9664 114.179 35.9664 101.568H19.9664C19.9664 116.957 23.7944 131.445 31.4019 144.904L45.3309 137.031ZM35.9664 101.568C35.9664 89.1352 39.1144 77.6026 45.4599 66.8272L31.6729 58.7082C23.8851 71.9328 19.9664 86.267 19.9664 101.568H35.9664ZM45.4794 66.794C51.8622 55.8348 60.4172 47.2264 71.2259 40.8612L63.1069 27.0742C49.9156 34.8424 39.4039 45.434 31.6534 58.7415L45.4794 66.794ZM71.2824 40.8277C82.0385 34.374 93.6157 31.1677 106.166 31.1677V15.1677C90.7171 15.1677 76.2943 19.1615 63.0504 27.1078L71.2824 40.8277ZM106.166 31.1677C118.894 31.1677 130.475 34.3297 141.073 40.6413L149.26 26.8942C136.125 19.0724 121.705 15.1677 106.166 15.1677V31.1677ZM141.073 40.6413C151.74 46.9933 160.163 55.5866 166.42 66.5368L180.312 58.5986C172.703 45.2822 162.326 34.6755 149.26 26.8942L141.073 40.6413ZM166.473 66.6272C172.811 77.3902 175.966 88.9874 175.966 101.568H191.966C191.966 86.148 188.055 71.7453 180.26 58.5082L166.473 66.6272ZM175.966 101.568C175.966 114.591 172.789 126.544 166.434 137.574L180.298 145.561C188.077 132.058 191.966 117.344 191.966 101.568H175.966ZM166.42 137.599C160.168 148.54 151.677 157.212 140.85 163.708L149.082 177.428C162.256 169.523 172.698 158.862 180.312 145.537L166.42 137.599ZM140.873 163.694C130.275 170.006 118.694 173.168 105.966 173.168V189.168C121.505 189.168 135.925 185.263 149.06 177.441L140.873 163.694ZM105.966 183.368C120.204 183.368 133.49 179.714 145.67 172.435L137.463 158.7C127.776 164.489 117.329 167.368 105.966 167.368V183.368ZM145.731 172.398C157.827 165.022 167.447 155.101 174.512 142.737L160.62 134.799C154.886 144.834 147.172 152.78 137.402 158.737L145.731 172.398ZM174.497 142.763C181.738 130.203 185.366 116.557 185.366 101.968H169.366C169.366 113.779 166.462 124.666 160.636 134.772L174.497 142.763ZM185.366 101.968C185.366 87.5278 181.812 74.0237 174.712 61.5986L160.82 69.5368C166.52 79.5117 169.366 90.2744 169.366 101.968H185.366ZM174.712 61.5986C167.639 49.2203 158 39.3488 145.87 32.1004L137.663 45.835C147.4 51.6533 155.094 59.5152 160.82 69.5368L174.712 61.5986ZM145.931 32.1373C133.744 24.7061 120.436 20.9677 106.166 20.9677V36.9677C117.496 36.9677 127.922 39.896 137.602 45.7981L145.931 32.1373ZM106.166 20.9677C91.7792 20.9677 78.4026 24.6977 66.2015 32.1373L74.5313 45.7981C84.1969 39.9044 94.6869 36.9677 106.166 36.9677V20.9677ZM66.2628 32.1004C54.1477 39.3399 44.4576 49.1914 37.2562 61.5368L51.0766 69.5987C56.9419 59.544 64.7185 51.6622 74.4701 45.835L66.2628 32.1004ZM37.2205 61.5986C30.1204 74.0237 26.5664 87.5278 26.5664 101.968H42.5664C42.5664 90.2744 45.4124 79.5117 51.1124 69.5368L37.2205 61.5986ZM26.5664 101.968C26.5664 116.526 30.1126 130.15 37.2004 142.701L51.1324 134.834C45.4202 124.719 42.5664 113.81 42.5664 101.968H26.5664ZM37.2562 142.799C44.4495 155.13 54.1203 165.031 66.2015 172.398L74.5313 158.737C64.7459 152.771 56.95 144.805 51.0766 134.737L37.2562 142.799ZM66.2628 172.435C78.4431 179.714 91.7289 183.368 105.966 183.368V167.368C94.6039 167.368 84.1564 164.489 74.47 158.7L66.2628 172.435ZM216.924 42.1677L223.157 37.1525L208.924 19.4647V42.1677H216.924ZM216.924 177.168V185.168H224.924V177.168H216.924ZM211.124 177.168H203.124V185.168H211.124V177.168ZM211.124 24.9677L217.353 19.948L203.124 2.29044V24.9677H211.124ZM321.524 161.968L315.295 166.987L329.524 184.645V161.968H321.524ZM321.524 27.1677V19.1677H313.524V27.1677H321.524ZM327.324 27.1677H335.324V19.1677H327.324V27.1677ZM327.324 179.368L321.091 184.383L335.324 202.071V179.368H327.324ZM208.924 42.1677V177.168H224.924V42.1677H208.924ZM216.924 169.168H211.124V185.168H216.924V169.168ZM219.124 177.168V24.9677H203.124V177.168H219.124ZM204.895 29.9874L315.295 166.987L327.753 156.948L217.353 19.948L204.895 29.9874ZM329.524 161.968V27.1677H313.524V161.968H329.524ZM321.524 35.1677H327.324V19.1677H321.524V35.1677ZM319.324 27.1677V179.368H335.324V27.1677H319.324ZM333.557 174.352L223.157 37.1525L210.691 47.183L321.091 184.383L333.557 174.352ZM394.376 39.1677L398.578 45.9752L398.589 45.9681L398.601 45.961L394.376 39.1677ZM368.576 66.1677L361.61 62.234L361.602 62.2477L361.594 62.2614L368.576 66.1677ZM368.776 138.768L361.83 142.737L361.83 142.737L368.776 138.768ZM394.176 165.568L389.897 172.328L389.947 172.359L389.997 172.39L394.176 165.568ZM447.776 173.368L445.964 165.576L445.943 165.58L445.923 165.585L447.776 173.368ZM464.176 166.968L468.106 173.936L472.176 171.64V166.968H464.176ZM464.176 119.968H472.176V111.968H464.176V119.968ZM414.576 119.968H406.576V127.968H414.576V119.968ZM414.576 114.168V106.168H406.576V114.168H414.576ZM470.776 114.168H478.776V106.168H470.776V114.168ZM470.776 162.768H462.776V175.712L474.353 169.923L470.776 162.768ZM471.176 162.568H479.176V149.624L467.598 155.412L471.176 162.568ZM471.176 169.968L475.313 176.815L479.176 174.481V169.968H471.176ZM451.376 178.368L449.4 170.616L449.309 170.639L449.219 170.664L451.376 178.368ZM390.776 170.968L386.706 177.855L386.735 177.872L386.764 177.889L390.776 170.968ZM362.776 142.568L355.797 146.479L355.823 146.525L355.849 146.57L362.776 142.568ZM363.176 61.9677L356.316 57.8518L356.299 57.8799L356.282 57.9082L363.176 61.9677ZM391.776 33.5677L387.774 26.6408L387.757 26.6505L387.74 26.6603L391.776 33.5677ZM452.176 25.7677L449.758 33.3936L449.843 33.4205L449.929 33.4456L452.176 25.7677ZM471.176 34.3677H479.176V29.7358L475.159 27.4297L471.176 34.3677ZM471.176 41.7677L466.649 48.3638L479.176 56.9606V41.7677H471.176ZM452.176 31.9677L449.541 39.5213L449.645 39.5577L449.75 39.5911L452.176 31.9677ZM430.576 20.9677C415.922 20.9677 402.385 24.765 390.151 32.3744L398.601 45.961C408.233 39.9704 418.829 36.9677 430.576 36.9677V20.9677ZM390.174 32.3602C378.194 39.7548 368.656 49.7561 361.61 62.234L375.542 70.1015C381.295 59.9127 388.957 51.9139 398.578 45.9752L390.174 32.3602ZM361.594 62.2614C354.654 74.6647 351.176 88.0777 351.176 102.368H367.176C367.176 90.791 369.964 80.0707 375.557 70.074L361.594 62.2614ZM351.176 102.368C351.176 116.808 354.73 130.312 361.83 142.737L375.722 134.799C370.022 124.824 367.176 114.061 367.176 102.368H351.176ZM361.83 142.737C368.854 155.03 378.221 164.938 389.897 172.328L398.454 158.808C389.064 152.865 381.497 144.905 375.722 134.799L361.83 142.737ZM389.997 172.39C401.895 179.677 414.804 183.368 428.576 183.368V167.368C417.814 167.368 407.789 164.525 398.354 158.746L389.997 172.39ZM428.576 183.368C436.252 183.368 443.293 182.659 449.629 181.15L445.923 165.585C441.059 166.743 435.3 167.368 428.576 167.368V183.368ZM449.588 181.16C456.074 179.651 462.253 177.238 468.106 173.936L460.245 160C455.699 162.564 450.945 164.417 445.964 165.576L449.588 181.16ZM472.176 166.968V119.968H456.176V166.968H472.176ZM464.176 111.968H414.576V127.968H464.176V111.968ZM422.576 119.968V114.168H406.576V119.968H422.576ZM414.576 122.168H470.776V106.168H414.576V122.168ZM462.776 114.168V162.768H478.776V114.168H462.776ZM474.353 169.923L474.753 169.723L467.598 155.412L467.198 155.612L474.353 169.923ZM463.176 162.568V169.968H479.176V162.568H463.176ZM467.039 163.12C461.267 166.608 455.391 169.089 449.4 170.616L453.352 186.12C460.961 184.18 468.285 181.061 475.313 176.815L467.039 163.12ZM449.219 170.664C443.353 172.306 436.757 173.168 429.376 173.168V189.168C437.994 189.168 446.065 188.162 453.533 186.071L449.219 170.664ZM429.376 173.168C416.737 173.168 405.261 170.116 394.787 164.046L386.764 177.889C399.757 185.419 414.015 189.168 429.376 189.168V173.168ZM394.846 164.08C384.318 157.859 375.96 149.395 369.703 138.566L355.849 146.57C363.458 159.74 373.767 170.21 386.706 177.855L394.846 164.08ZM369.755 138.657C363.679 127.816 360.576 115.582 360.576 101.768H344.576C344.576 118.087 348.272 133.052 355.797 146.479L369.755 138.657ZM360.576 101.768C360.576 88.5971 363.759 76.7422 370.069 66.0272L356.282 57.9082C348.459 71.1932 344.576 85.8717 344.576 101.768H360.576ZM370.036 66.0837C376.557 55.2148 385.128 46.7173 395.812 40.4751L387.74 26.6603C374.69 34.2848 364.194 44.7207 356.316 57.8518L370.036 66.0837ZM395.778 40.4946C406.598 34.2429 417.956 31.1677 429.976 31.1677V15.1677C415.062 15.1677 400.953 19.0259 387.774 26.6408L395.778 40.4946ZM429.976 31.1677C438.935 31.1677 445.408 32.0143 449.758 33.3936L454.594 18.1419C448.01 16.0545 439.683 15.1677 429.976 15.1677V31.1677ZM449.929 33.4456C454.583 34.8078 460.315 37.3574 467.193 41.3057L475.159 27.4297C467.636 23.1113 460.702 19.9276 454.423 18.0898L449.929 33.4456ZM463.176 34.3677V41.7677H479.176V34.3677H463.176ZM475.703 35.1716C468.461 30.2018 461.419 26.5137 454.601 24.3443L449.75 39.5911C454.666 41.1551 460.291 44.0003 466.649 48.3638L475.703 35.1716ZM454.811 24.4141C447.953 22.0217 439.789 20.9677 430.576 20.9677V36.9677C438.696 36.9677 444.932 37.9137 449.541 39.5213L454.811 24.4141ZM116.948 357.168L111.154 362.684L113.519 365.168H116.948V357.168ZM37.5484 273.768L43.3425 268.252L29.5484 253.763V273.768H37.5484ZM37.5484 357.168V365.168H45.5484V357.168H37.5484ZM30.9484 357.168H22.9484V365.168H30.9484V357.168ZM30.9484 207.168V199.168H22.9484V207.168H30.9484ZM37.5484 207.168H45.5484V199.168H37.5484V207.168ZM37.5484 261.568H29.5484V279.118L42.796 267.606L37.5484 261.568ZM100.148 207.168V199.168H97.1581L94.9009 201.129L100.148 207.168ZM109.548 207.168L114.746 213.249L131.221 199.168H109.548V207.168ZM39.3484 267.168L34.1507 261.086L27.7074 266.593L33.5773 272.708L39.3484 267.168ZM125.748 357.168V365.168H144.518L131.52 351.627L125.748 357.168ZM122.743 351.652L43.3425 268.252L31.7543 279.284L111.154 362.684L122.743 351.652ZM29.5484 273.768V357.168H45.5484V273.768H29.5484ZM37.5484 349.168H30.9484V365.168H37.5484V349.168ZM38.9484 357.168V207.168H22.9484V357.168H38.9484ZM30.9484 215.168H37.5484V199.168H30.9484V215.168ZM29.5484 207.168V261.568H45.5484V207.168H29.5484ZM42.796 267.606L105.396 213.206L94.9009 201.129L32.3009 255.529L42.796 267.606ZM100.148 215.168H109.548V199.168H100.148V215.168ZM104.351 201.086L34.1507 261.086L44.5462 273.249L114.746 213.249L104.351 201.086ZM33.5773 272.708L119.977 362.708L131.52 351.627L45.1195 261.627L33.5773 272.708ZM125.748 349.168H116.948V365.168H125.748V349.168ZM146.378 207.168V199.168H138.378V207.168H146.378ZM152.978 207.168H160.978V199.168H152.978V207.168ZM152.978 351.368H144.978V359.368H152.978V351.368ZM199.378 351.368H207.378V343.368H199.378V351.368ZM199.378 357.168V365.168H207.378V357.168H199.378ZM146.378 357.168H138.378V365.168H146.378V357.168ZM146.378 215.168H152.978V199.168H146.378V215.168ZM144.978 207.168V351.368H160.978V207.168H144.978ZM152.978 359.368H199.378V343.368H152.978V359.368ZM191.378 351.368V357.168H207.378V351.368H191.378ZM199.378 349.168H146.378V365.168H199.378V349.168ZM154.378 357.168V207.168H138.378V357.168H154.378ZM242.064 350.168L237.892 356.994L242.064 350.168ZM213.464 320.968L206.5 324.904L206.525 324.949L206.551 324.994L213.464 320.968ZM213.664 242.768L220.558 246.827L220.567 246.811L220.577 246.794L213.664 242.768ZM242.264 213.968L246.324 220.861L246.352 220.845L246.38 220.828L242.264 213.968ZM320.264 213.768L316.171 220.641L316.171 220.641L320.264 213.768ZM348.464 242.568L341.518 246.537L341.544 246.582L341.571 246.627L348.464 242.568ZM348.464 321.568L341.532 317.574L341.525 317.586L341.518 317.599L348.464 321.568ZM320.064 350.568L324.157 357.441L324.169 357.434L324.18 357.428L320.064 350.568ZM316.664 345.568L320.768 352.435L320.798 352.417L320.829 352.398L316.664 345.568ZM342.664 318.768L335.733 314.772L335.726 314.785L335.718 314.799L342.664 318.768ZM342.864 245.568L349.81 241.599L349.81 241.599L342.864 245.568ZM316.864 218.968L312.699 225.798L312.73 225.817L312.76 225.835L316.864 218.968ZM245.464 218.968L249.568 225.835L249.598 225.817L249.629 225.798L245.464 218.968ZM219.264 245.568L212.354 241.537L212.336 241.568L212.318 241.599L219.264 245.568ZM219.264 318.768L212.298 322.701L212.326 322.75L212.354 322.799L219.264 318.768ZM245.464 345.568L241.299 352.398L241.33 352.417L241.36 352.435L245.464 345.568ZM281.064 353.168C268.543 353.168 256.986 349.911 246.236 343.341L237.892 356.994C251.143 365.091 265.585 369.168 281.064 369.168V353.168ZM246.236 343.341C235.366 336.699 226.775 327.927 220.377 316.941L206.551 324.994C214.286 338.275 224.763 348.97 237.892 356.994L246.236 343.341ZM220.429 317.031C214.169 305.957 211.064 294.179 211.064 281.568H195.064C195.064 296.957 198.892 311.445 206.5 324.904L220.429 317.031ZM211.064 281.568C211.064 269.135 214.212 257.603 220.558 246.827L206.771 238.708C198.983 251.933 195.064 266.267 195.064 281.568H211.064ZM220.577 246.794C226.96 235.835 235.515 227.226 246.324 220.861L238.205 207.074C225.013 214.842 214.502 225.434 206.751 238.741L220.577 246.794ZM246.38 220.828C257.136 214.374 268.713 211.168 281.264 211.168V195.168C265.815 195.168 251.392 199.161 238.148 207.108L246.38 220.828ZM281.264 211.168C293.992 211.168 305.572 214.33 316.171 220.641L324.357 206.894C311.223 199.072 296.803 195.168 281.264 195.168V211.168ZM316.171 220.641C326.837 226.993 335.261 235.587 341.518 246.537L355.41 238.599C347.801 225.282 337.424 214.675 324.357 206.894L316.171 220.641ZM341.571 246.627C347.909 257.39 351.064 268.987 351.064 281.568H367.064C367.064 266.148 363.153 251.745 355.358 238.508L341.571 246.627ZM351.064 281.568C351.064 294.591 347.887 306.544 341.532 317.574L355.396 325.561C363.175 312.058 367.064 297.344 367.064 281.568H351.064ZM341.518 317.599C335.266 328.54 326.774 337.212 315.948 343.708L324.18 357.428C337.354 349.523 347.796 338.862 355.41 325.537L341.518 317.599ZM315.971 343.694C305.372 350.006 293.792 353.168 281.064 353.168V369.168C296.603 369.168 311.023 365.263 324.157 357.441L315.971 343.694ZM281.064 363.368C295.302 363.368 308.587 359.714 320.768 352.435L312.56 338.7C302.874 344.489 292.427 347.368 281.064 347.368V363.368ZM320.829 352.398C332.925 345.022 342.545 335.101 349.61 322.737L335.718 314.799C329.983 324.834 322.27 332.78 312.499 338.737L320.829 352.398ZM349.595 322.763C356.835 310.203 360.464 296.557 360.464 281.968H344.464C344.464 293.779 341.559 304.666 335.733 314.772L349.595 322.763ZM360.464 281.968C360.464 267.528 356.91 254.024 349.81 241.599L335.918 249.537C341.618 259.512 344.464 270.274 344.464 281.968H360.464ZM349.81 241.599C342.737 229.22 333.098 219.349 320.968 212.1L312.76 225.835C322.497 231.653 330.191 239.515 335.918 249.537L349.81 241.599ZM321.029 212.137C308.842 204.706 295.534 200.968 281.264 200.968V216.968C292.594 216.968 303.02 219.896 312.699 225.798L321.029 212.137ZM281.264 200.968C266.877 200.968 253.5 204.698 241.299 212.137L249.629 225.798C259.295 219.904 269.785 216.968 281.264 216.968V200.968ZM241.36 212.1C229.245 219.34 219.555 229.191 212.354 241.537L226.174 249.599C232.04 239.544 239.816 231.662 249.568 225.835L241.36 212.1ZM212.318 241.599C205.218 254.024 201.664 267.528 201.664 281.968H217.664C217.664 270.274 220.51 259.512 226.21 249.537L212.318 241.599ZM201.664 281.968C201.664 296.526 205.21 310.15 212.298 322.701L226.23 314.834C220.518 304.719 217.664 293.81 217.664 281.968H201.664ZM212.354 322.799C219.547 335.13 229.218 345.031 241.299 352.398L249.629 338.737C239.844 332.771 232.048 324.805 226.174 314.737L212.354 322.799ZM241.36 352.435C253.541 359.714 266.827 363.368 281.064 363.368V347.368C269.702 347.368 259.254 344.489 249.568 338.7L241.36 352.435ZM472.222 357.168L466.428 362.684L468.792 365.168H472.222V357.168ZM392.822 273.768L398.616 268.252L384.822 253.763V273.768H392.822ZM392.822 357.168V365.168H400.822V357.168H392.822ZM386.222 357.168H378.222V365.168H386.222V357.168ZM386.222 207.168V199.168H378.222V207.168H386.222ZM392.822 207.168H400.822V199.168H392.822V207.168ZM392.822 261.568H384.822V279.118L398.069 267.606L392.822 261.568ZM455.422 207.168V199.168H452.432L450.174 201.129L455.422 207.168ZM464.822 207.168L470.02 213.249L486.495 199.168H464.822V207.168ZM394.622 267.168L389.424 261.086L382.981 266.593L388.851 272.708L394.622 267.168ZM481.022 357.168V365.168H499.792L486.793 351.627L481.022 357.168ZM478.016 351.652L398.616 268.252L387.028 279.284L466.428 362.684L478.016 351.652ZM384.822 273.768V357.168H400.822V273.768H384.822ZM392.822 349.168H386.222V365.168H392.822V349.168ZM394.222 357.168V207.168H378.222V357.168H394.222ZM386.222 215.168H392.822V199.168H386.222V215.168ZM384.822 207.168V261.568H400.822V207.168H384.822ZM398.069 267.606L460.669 213.206L450.174 201.129L387.574 255.529L398.069 267.606ZM455.422 215.168H464.822V199.168H455.422V215.168ZM459.624 201.086L389.424 261.086L399.82 273.249L470.02 213.249L459.624 201.086ZM388.851 272.708L475.251 362.708L486.793 351.627L400.393 261.627L388.851 272.708ZM481.022 349.168H472.222V365.168H481.022V349.168Z" fill="white" mask="url(#path-2-outside-1_702_157)"/>
</svg>
